<svg width="70" height="70" viewBox="0 0 70 70" fill="none" xmlns="http://www.w3.org/2000/svg">
<path d="M39.6401 35.0001L52.6283 22.0118C53.2448 21.3965 53.5915 20.5615 53.5923 19.6905C53.593 18.8195 53.2478 17.9839 52.6325 17.3675C52.0171 16.751 51.1821 16.4043 50.3111 16.4035C49.4401 16.4028 48.6045 16.748 47.9881 17.3634L34.9998 30.3516L22.0116 17.3634C21.3951 16.7469 20.5591 16.4006 19.6873 16.4006C18.8156 16.4006 17.9795 16.7469 17.3631 17.3634C16.7467 17.9798 16.4004 18.8158 16.4004 19.6876C16.4004 20.5593 16.7467 21.3954 17.3631 22.0118L30.3514 35.0001L17.3631 47.9884C16.7467 48.6048 16.4004 49.4408 16.4004 50.3126C16.4004 51.1843 16.7467 52.0204 17.3631 52.6368C17.9795 53.2532 18.8156 53.5995 19.6873 53.5995C20.5591 53.5995 21.3951 53.2532 22.0116 52.6368L34.9998 39.6485L47.9881 52.6368C48.6045 53.2532 49.4406 53.5995 50.3123 53.5995C51.1841 53.5995 52.0201 53.2532 52.6366 52.6368C53.253 52.0204 53.5993 51.1843 53.5993 50.3126C53.5993 49.4408 53.253 48.6048 52.6366 47.9884L39.6401 35.0001Z" fill="black"/>
</svg>
